<?xml version="1.0" encoding="utf-8"?>
<?xml-stylesheet type="text/xsl" href="rss1.xsl"?>
<rss version="2.0" xmlns:atom="http://www.w3.org/2005/Atom" xmlns:content="http://purl.org/rss/1.0/modules/content/" xmlns:dc="http://purl.org/dc/elements/1.1/" xmlns:media="http://search.yahoo.com/mrss/">
<channel>
 <title>Getty</title>
 <link>http://www.gettyimg.com/</link>
 <atom:link href="http://www.gettyimg.com/" rel="self" type="application/rss+xml" />

 
                <item>
                <title><![CDATA[【Cinema Center】WEB-DL - Hilda Furacão 1080p GLBO (GLOBOPLAY) WEB-DL AAC2.0 (Português Brasileiro) x264-DASH - 49.38 GB MEGA]]></title>
                <link><![CDATA[https://sharemania.us/threads/hilda-furac%C3%A3o-1080p-glbo-globoplay-web-dl-aac2-0-portugu%C3%AAs-brasileiro-x264-dash-49-38-gb-mega.245924/]]></link>
                <description><![CDATA[<article>
<blockquote class="messageText SelectQuoteContainer ugc baseHtml">
<span style="font-size: 22px"><b>Hilda.Furacão.S01.1998.1080p.GLBO.WEB-DL.AAC2.0.x264-DASH.mkv (Português Brasileiro | Brazilian Portuguese) | MEGA (49.38 GB) | 1 Temporadas | 32 Episódios | DASH</b></span><br>
<span style="font-size: 18px"><br>
Título: </span><b><span style="font-size: 18px">Hilda Furacão</span></b><br>
<span style="font-size: 18px"><br>
Ano de lançamento:<b> 1998</b><br>
<br>
Idioma: <b><b>Português (Brasil)</b></b><br>
<br>
Serviço:</span><b><b> <span style="font-size: 18px">GLOBOPLAY (Brasil)</span></b></b><br>
<br>
<div class="ToggleTriggerAnchor bbCodeSpoilerContainer">
<button type="button" class="button bbCodeSpoilerButton ToggleTrigger Tooltip JsOnly" data-target="> .SpoilerTarget"><span>Spoiler: <span class="SpoilerTitle">MediaInfo</span></span></button>
<div class="SpoilerTarget bbCodeSpoilerText">General<br>
Unique ID : 219761524393300792276935434401067486698 (0xA55487B10CE5AED3A86E9D58BD1ECDEA)<br>
Complete name : Hilda.Furacão.S01.1998.1080p.GLBO.WEB-DL.AAC2.0.x264-DASH\Hilda.Furacão.S01E01.Episódio.de.27.05.1998.1080p.GLBO.WEB-DL.AAC2.0.x264-DASH.mkv<br>
Format : Matroska<br>
Format version : Version 4<br>
File size : 1.99 GiB<br>
Duration : 59 min 18 s<br>
Overall bit rate : 4 795 kb/s<br>
Frame rate : 29.970 FPS<br>
Encoded date : 2024-05-31 20:27:37 UTC<br>
Writing application : mkvmerge v82.0 ('I'm The President') 64-bit<br>
Writing library : libebml v1.4.5 + libmatroska v1.7.1<br>
<br>
Video<br>
ID : 1<br>
Format : AVC<br>
Format/Info : Advanced Video Codec<br>
Format profile : High@L4<br>
Format settings : CABAC / 2 Ref Frames<br>
Format settings, CABAC : Yes<br>
Format settings, Reference frames : 2 frames<br>
Format settings, GOP : M=2, N=30<br>
Codec ID : V_MPEG4/ISO/AVC<br>
Duration : 59 min 18 s<br>
Bit rate : 4 660 kb/s<br>
Width : 1 920 pixels<br>
Height : 1 080 pixels<br>
Display aspect ratio : 16:9<br>
Frame rate mode : Constant<br>
Frame rate : 29.970 (30000/1001) FPS<br>
Color space : YUV<br>
Chroma subsampling : 4:2:0<br>
Bit depth : 8 bits<br>
Scan type : Progressive<br>
Bits/(Pixel*Frame) : 0.075<br>
Stream size : 1.93 GiB (97%)<br>
Writing library : x264 core 148<br>
Encoding settings : cabac=1 / ref=2 / deblock=1:0:0 / analyse=0x3:0x113 / me=hex / subme=4 / psy=1 / psy_rd=1.00:0.00 / mixed_ref=0 / me_range=16 / chroma_me=1 / trellis=1 / 8x8dct=1 / cqm=0 / deadzone=21,11 / fast_pskip=1 / chroma_qp_offset=0 / threads=34 / lookahead_threads=8 / sliced_threads=0 / nr=0 / decimate=1 / interlaced=0 / bluray_compat=0 / constrained_intra=0 / bframes=1 / b_pyramid=0 / b_adapt=1 / b_bias=0 / direct=1 / weightb=1 / open_gop=0 / weightp=1 / keyint=30 / keyint_min=16 / scenecut=0 / intra_refresh=0 / rc=2pass / mbtree=0 / bitrate=4660 / ratetol=1.0 / qcomp=0.60 / qpmin=0 / qpmax=69 / qpstep=4 / cplxblur=20.0 / qblur=0.5 / ip_ratio=1.40 / pb_ratio=1.30 / aq=1:1.00<br>
Default : Yes<br>
Forced : No<br>
<br>
Audio<br>
ID : 2<br>
Format : AAC LC<br>
Format/Info : Advanced Audio Codec Low Complexity<br>
Codec ID : A_AAC-2<br>
Duration : 59 min 18 s<br>
Bit rate : 128 kb/s<br>
Channel(s) : 2 channels<br>
Channel layout : L R<br>
Sampling rate : 44.1 kHz<br>
Frame rate : 43.066 FPS (1024 SPF)<br>
Compression mode : Lossy<br>
Stream size : 54.5 MiB (3%)<br>
Default : Yes<br>
Forced : No<br>
<br>
Text<br>
ID : 3<br>
Format : UTF-8<br>
Codec ID : S_TEXT/UTF8<br>
Codec ID/Info : UTF-8 Plain Text<br>
Duration : 59 min 18 s<br>
Bit rate : 85 b/s<br>
Frame rate : 0.284 FPS<br>
Count of elements : 1010<br>
Stream size : 37.1 KiB (0%)<br>
Title : Portuguese<br>
Language : Portuguese<br>
Default : No<br>
Forced : No</div>
</div><br>
<img src="https://i.ibb.co/Rzx6bZH/2024-4092-hilda-furacao-background-v1.jpg" class="bbCodeImage LbImage" alt="[​IMG]" data-url="https://i.ibb.co/Rzx6bZH/2024-4092-hilda-furacao-background-v1.jpg" style=""><br>
<br>
<b><span style="font-size: 22px">Hilda é uma bela moça da alta sociedade que desiste do casamento no dia da cerimônia, rompe com a família e vai morar na zona boêmia de Belo Horizonte.<br>
<br>
Imagens:</span></b><br>
<img src="https://i.ibb.co/8PyFMBX/Hilda-Furac-o-S01-E01-Epis-dio-de-27-05-1998-1080p-GLBO-WEB-DL-AAC2-0-x264-DASH-mkv.png" class="bbCodeImage LbImage" alt="[​IMG]" data-url="https://i.ibb.co/8PyFMBX/Hilda-Furac-o-S01-E01-Epis-dio-de-27-05-1998-1080p-GLBO-WEB-DL-AAC2-0-x264-DASH-mkv.png" style=""><br>
<b><span style="font-size: 22px"><br>
<b><span style="font-size: 26px">Download no Mega:</span></b></span><br>
<span style="font-size: 18px">
<div class="bbCodeBlock bbCodeVfcHH HiddenContent">
<div class="attribution type">Hidden Content:</div>
<blockquote>You must reply before you can see the hidden data contained here.</blockquote>
</div></span></b>
<div class="messageTextEndMarker">&nbsp;</div>
</blockquote>
</article>]]></description>
                <author><![CDATA[dash]]></author>
                </item>

                </channel></rss>